<svg width="35" height="44" viewBox="0 0 35 44" fill="none" xmlns="http://www.w3.org/2000/svg">
<path d="M5.65332 30.9014C4.55501 30.9014 3.68685 31.2682 3.04883 32.002C2.41536 32.7311 2.09863 33.7314 2.09863 35.0029C2.09863 36.3109 2.40397 37.3226 3.01465 38.0381C3.62988 38.749 4.50488 39.1045 5.63965 39.1045C6.33691 39.1045 7.13216 38.9792 8.02539 38.7285V39.7471C7.33268 40.0068 6.47819 40.1367 5.46191 40.1367C3.98991 40.1367 2.85286 39.6901 2.05078 38.7969C1.25326 37.9036 0.854492 36.6344 0.854492 34.9893C0.854492 33.9593 1.0459 33.057 1.42871 32.2822C1.81608 31.5075 2.37207 30.9105 3.09668 30.4912C3.82585 30.0719 4.68262 29.8623 5.66699 29.8623C6.71517 29.8623 7.63118 30.0537 8.41504 30.4365L7.92285 31.4346C7.16634 31.0791 6.40983 30.9014 5.65332 30.9014ZM16.4883 40L15.2441 36.8213H11.2383L10.0078 40H8.83203L12.7832 29.9648H13.7607L17.6914 40H16.4883ZM14.8818 35.7754L13.7197 32.6787C13.5693 32.2868 13.4144 31.806 13.2549 31.2363C13.1546 31.6738 13.0111 32.1546 12.8242 32.6787L11.6484 35.7754H14.8818ZM20.2275 35.8438V40H19.0654V30.0059H21.8066C23.0326 30.0059 23.9372 30.2406 24.5205 30.71C25.1084 31.1794 25.4023 31.8857 25.4023 32.8291C25.4023 34.1507 24.7324 35.0439 23.3926 35.5088L26.1064 40H24.7324L22.3125 35.8438H20.2275ZM20.2275 34.8457H21.8203C22.6406 34.8457 23.2422 34.6839 23.625 34.3604C24.0078 34.0322 24.1992 33.5423 24.1992 32.8906C24.1992 32.2298 24.0033 31.7536 23.6113 31.4619C23.224 31.1702 22.5996 31.0244 21.7383 31.0244H20.2275V34.8457ZM30.7959 40H29.6338V31.0381H26.4688V30.0059H33.9609V31.0381H30.7959V40Z" fill="#333333"/>
<path d="M11 22C11.5523 22 12 21.5523 12 21C12 20.4477 11.5523 20 11 20C10.4477 20 10 20.4477 10 21C10 21.5523 10.4477 22 11 22Z" stroke="#333333" stroke-width="2" stroke-linecap="round" stroke-linejoin="round"/>
<path d="M22 22C22.5523 22 23 21.5523 23 21C23 20.4477 22.5523 20 22 20C21.4477 20 21 20.4477 21 21C21 21.5523 21.4477 22 22 22Z" stroke="#333333" stroke-width="2" stroke-linecap="round" stroke-linejoin="round"/>
<path d="M3 1H7L9.68 14.39C9.77144 14.8504 10.0219 15.264 10.3875 15.5583C10.7532 15.8526 11.2107 16.009 11.68 16H21.4C21.8693 16.009 22.3268 15.8526 22.6925 15.5583C23.0581 15.264 23.3086 14.8504 23.4 14.39L25 6H8" stroke="#333333" stroke-width="2" stroke-linecap="round" stroke-linejoin="round"/>
</svg>
