<svg width="43" height="41" viewBox="0 0 43 41" fill="none" xmlns="http://www.w3.org/2000/svg">
<path d="M21 9C23.2091 9 25 7.20914 25 5C25 2.79086 23.2091 1 21 1C18.7909 1 17 2.79086 17 5C17 7.20914 18.7909 9 21 9Z" stroke="#333333" stroke-width="2" stroke-linecap="round" stroke-linejoin="round"/>
<path d="M29 19V17C29 15.9391 28.5786 14.9217 27.8284 14.1716C27.0783 13.4214 26.0609 13 25 13H17C15.9391 13 14.9217 13.4214 14.1716 14.1716C13.4214 14.9217 13 15.9391 13 17V19" stroke="#333333" stroke-width="2" stroke-linecap="round" stroke-linejoin="round"/>
<path d="M1.37402 37V27.0059H2.53613V35.9473H6.94531V37H1.37402ZM17.3223 31.9893C17.3223 33.5889 16.9167 34.8467 16.1055 35.7627C15.2988 36.6787 14.1755 37.1367 12.7354 37.1367C11.2633 37.1367 10.1263 36.6878 9.32422 35.79C8.52669 34.8877 8.12793 33.6162 8.12793 31.9756C8.12793 30.3486 8.52897 29.0885 9.33105 28.1953C10.1331 27.2975 11.2725 26.8486 12.749 26.8486C14.1846 26.8486 15.3057 27.3044 16.1123 28.2158C16.9189 29.1273 17.3223 30.3851 17.3223 31.9893ZM9.3584 31.9893C9.3584 33.3428 9.64551 34.3704 10.2197 35.0723C10.7985 35.7695 11.637 36.1182 12.7354 36.1182C13.8428 36.1182 14.679 35.7695 15.2441 35.0723C15.8092 34.375 16.0918 33.3473 16.0918 31.9893C16.0918 30.6449 15.8092 29.6263 15.2441 28.9336C14.6836 28.2363 13.8519 27.8877 12.749 27.8877C11.6416 27.8877 10.7985 28.2386 10.2197 28.9404C9.64551 29.6377 9.3584 30.654 9.3584 31.9893ZM23.9531 31.7637H27.3506V36.624C26.8219 36.7926 26.2842 36.9202 25.7373 37.0068C25.1904 37.0934 24.557 37.1367 23.8369 37.1367C22.3239 37.1367 21.1458 36.6878 20.3027 35.79C19.4596 34.8877 19.0381 33.6253 19.0381 32.0029C19.0381 30.9639 19.2454 30.0547 19.6602 29.2754C20.0794 28.4915 20.681 27.8945 21.4648 27.4844C22.2487 27.0697 23.167 26.8623 24.2197 26.8623C25.2861 26.8623 26.2796 27.0583 27.2002 27.4502L26.749 28.4756C25.8467 28.0928 24.9785 27.9014 24.1445 27.9014C22.9277 27.9014 21.9775 28.2637 21.2939 28.9883C20.6104 29.7129 20.2686 30.7178 20.2686 32.0029C20.2686 33.3519 20.5967 34.375 21.2529 35.0723C21.9137 35.7695 22.8822 36.1182 24.1582 36.1182C24.8509 36.1182 25.5277 36.0384 26.1885 35.8789V32.8027H23.9531V31.7637ZM29.7568 37V27.0059H30.9189V37H29.7568ZM41.4736 37H40.1475L34.6855 28.6123H34.6309C34.7038 29.5967 34.7402 30.499 34.7402 31.3193V37H33.667V27.0059H34.9795L40.4277 35.3594H40.4824C40.4733 35.2363 40.4528 34.8421 40.4209 34.1768C40.389 33.5068 40.3776 33.0283 40.3867 32.7412V27.0059H41.4736V37Z" fill="#333333"/>
</svg>
